<svg xmlns="http://www.w3.org/2000/svg" width="687" height="112" viewBox="0 0 687.4 111.5"><style>.a{fill:#FFF;}</style><path d="M95.2 16.3C85.1 6.2 71.2 0 55.8 0 40.4 0 26.4 6.2 16.3 16.3 6.2 26.4 0 40.4 0 55.8s6.2 29.3 16.3 39.4c10.1 10.1 24 16.3 39.4 16.3 15.4 0 29.3-6.2 39.4-16.3 10.1-10.1 16.3-24 16.3-39.4S105.3 26.4 95.2 16.3zM93.3 93.3c-9.6 9.6-22.9 15.6-37.6 15.6s-28-5.9-37.6-15.6S2.6 70.4 2.6 55.8c0-14.7 6-28 15.6-37.6S41.1 2.6 55.8 2.6c14.7 0 28 6 37.6 15.6 9.6 9.6 15.6 22.9 15.6 37.6C108.9 70.4 103 83.7 93.3 93.3z" class="a"/><path d="M103.7 55.3C103.5 29 82.1 7.8 55.8 7.8c-26.3 0-47.7 21.2-48 47.5l22-22 7.4 7.4L21.1 56.8h69.4L74.4 40.7l7.4-7.4L103.7 55.3zM55.8 47.1L35.3 25.6h13.6V15c0-2.7 3.1-5 6.9-5s6.9 2.2 6.9 5v10.6h13.6L55.8 47.1z" class="a"/><path d="M61.7 82.8c-1.1-0.7-2.5-1.3-4.1-1.9 -1.3-0.4-2.3-0.9-3.1-1.3 -0.8-0.4-1.4-0.8-1.8-1.3 -0.4-0.5-0.6-1-0.6-1.7 0-0.5 0.2-1 0.5-1.5 0.3-0.5 0.8-0.9 1.5-1.1 0.7-0.3 1.6-0.5 2.7-0.5 0.9 0 1.7 0.1 2.5 0.2 0.7 0.1 1.4 0.3 1.9 0.5 0.6 0.2 1 0.4 1.4 0.5l1.2-3.7c-0.7-0.4-1.7-0.7-2.8-0.9 -1-0.2-2.1-0.3-3.3-0.4v-3.9h-3.4v4.1c-0.5 0.1-1.1 0.2-1.6 0.4 -1.3 0.4-2.3 0.9-3.2 1.6 -0.9 0.7-1.6 1.4-2 2.3 -0.5 0.9-0.7 1.9-0.7 2.9 0 1.2 0.3 2.3 1 3.2 0.6 0.9 1.5 1.7 2.7 2.4 1.2 0.7 2.5 1.3 4.2 1.8 1.2 0.4 2.2 0.8 2.9 1.2 0.7 0.4 1.3 0.9 1.6 1.4 0.3 0.5 0.5 1.1 0.5 1.7 0 0.7-0.2 1.3-0.6 1.8 -0.4 0.5-1 0.9-1.8 1.2 -0.8 0.3-1.7 0.4-2.8 0.4 -0.9 0-1.8-0.1-2.6-0.2 -0.8-0.2-1.6-0.4-2.4-0.6 -0.7-0.2-1.4-0.5-2-0.8l-1.2 3.9c0.5 0.3 1.2 0.6 2 0.8 0.8 0.2 1.7 0.4 2.7 0.6 1 0.1 2 0.2 3 0.2l0.2 0v4h3.4v-4.3c0.4-0.1 0.8-0.2 1.2-0.3 1.4-0.4 2.5-1 3.4-1.7 0.9-0.7 1.6-1.5 2-2.5 0.4-0.9 0.7-1.9 0.7-3 0-1.2-0.3-2.3-0.8-3.2C63.6 84.3 62.8 83.5 61.7 82.8z" class="a"/><path d="M131.8 57.2c0 1.2 0.2 2.3 0.5 3.4 0.3 1.1 0.8 2 1.5 2.9 0.7 0.8 1.5 1.5 2.5 1.9 1 0.5 2.2 0.7 3.6 0.7 1.9 0 3.5-0.4 4.7-1.3 1.2-0.8 2.1-2.1 2.6-3.8h6.3c-0.3 1.6-1 3.1-1.8 4.4 -0.9 1.3-1.9 2.4-3.1 3.2 -1.2 0.9-2.6 1.5-4 2 -1.5 0.4-3.1 0.7-4.7 0.7 -2.4 0-4.5-0.4-6.3-1.2 -1.8-0.8-3.4-1.9-4.6-3.3 -1.3-1.4-2.2-3.1-2.9-5 -0.6-1.9-1-4.1-1-6.4 0-2.1 0.3-4.2 1-6.1 0.7-1.9 1.6-3.6 2.9-5.1 1.3-1.5 2.8-2.6 4.6-3.5 1.8-0.9 3.8-1.3 6.1-1.3 2.4 0 4.5 0.5 6.4 1.5 1.9 1 3.4 2.3 4.7 3.9 1.2 1.6 2.1 3.5 2.7 5.6 0.6 2.1 0.7 4.3 0.4 6.5H131.8zM147.2 52.9c-0.1-1-0.3-2.1-0.7-3 -0.4-1-0.9-1.8-1.5-2.5 -0.6-0.7-1.4-1.3-2.3-1.7 -0.9-0.4-1.9-0.7-3.1-0.7 -1.2 0-2.2 0.2-3.2 0.6 -1 0.4-1.8 1-2.4 1.7 -0.7 0.7-1.2 1.6-1.6 2.5 -0.4 1-0.6 2-0.7 3.1H147.2z" class="a"/><path d="M184.1 63.9c0 0.8 0.1 1.4 0.3 1.7 0.2 0.3 0.6 0.5 1.3 0.5 0.2 0 0.4 0 0.7 0 0.3 0 0.6 0 0.9-0.1v4.6c-0.2 0.1-0.5 0.2-0.9 0.3 -0.4 0.1-0.7 0.2-1.1 0.3 -0.4 0.1-0.8 0.1-1.2 0.2s-0.7 0.1-1 0.1c-1.4 0-2.5-0.3-3.4-0.8 -0.9-0.5-1.5-1.5-1.7-2.9 -1.3 1.3-2.9 2.2-4.9 2.8 -1.9 0.6-3.8 0.9-5.6 0.9 -1.4 0-2.7-0.2-3.9-0.6 -1.2-0.4-2.3-0.9-3.3-1.6 -1-0.7-1.7-1.6-2.3-2.7 -0.6-1.1-0.8-2.4-0.8-3.9 0-1.9 0.3-3.4 1-4.5 0.7-1.2 1.6-2.1 2.7-2.7 1.1-0.7 2.3-1.1 3.7-1.4 1.4-0.3 2.8-0.5 4.2-0.7 1.2-0.2 2.3-0.4 3.4-0.5 1.1-0.1 2-0.3 2.9-0.5 0.8-0.2 1.5-0.6 2-1.1 0.5-0.5 0.7-1.2 0.7-2.2 0-0.9-0.2-1.6-0.6-2.1 -0.4-0.5-0.9-1-1.5-1.3 -0.6-0.3-1.3-0.5-2-0.6 -0.7-0.1-1.4-0.1-2.1-0.1 -1.9 0-3.4 0.4-4.6 1.2 -1.2 0.8-1.9 2-2 3.6h-6.6c0.1-1.9 0.6-3.5 1.4-4.8 0.8-1.3 1.9-2.3 3.1-3.1 1.3-0.8 2.7-1.3 4.3-1.6 1.6-0.3 3.2-0.5 4.9-0.5 1.5 0 2.9 0.2 4.4 0.5 1.4 0.3 2.7 0.8 3.9 1.5 1.1 0.7 2.1 1.6 2.8 2.7 0.7 1.1 1 2.5 1 4V63.9zM177.5 55.5c-1 0.7-2.2 1.1-3.7 1.2 -1.5 0.1-2.9 0.3-4.4 0.6 -0.7 0.1-1.4 0.3-2 0.5 -0.7 0.2-1.2 0.5-1.7 0.9 -0.5 0.4-0.9 0.9-1.2 1.5 -0.3 0.6-0.4 1.3-0.4 2.2 0 0.7 0.2 1.4 0.6 1.9 0.4 0.5 0.9 0.9 1.5 1.2 0.6 0.3 1.3 0.5 2 0.6 0.7 0.1 1.4 0.2 1.9 0.2 0.7 0 1.5-0.1 2.4-0.3 0.9-0.2 1.7-0.5 2.4-1 0.8-0.5 1.4-1.1 1.9-1.8 0.5-0.7 0.8-1.6 0.8-2.6V55.5z" class="a"/><path d="M196.3 60.9c0.2 1.9 0.9 3.3 2.2 4.1 1.3 0.8 2.8 1.2 4.6 1.2 0.6 0 1.3 0 2.1-0.1 0.8-0.1 1.5-0.3 2.2-0.6 0.7-0.3 1.3-0.7 1.7-1.2 0.4-0.5 0.6-1.2 0.6-2.1 0-0.9-0.3-1.6-0.9-2.1 -0.6-0.5-1.3-1-2.2-1.3 -0.9-0.3-1.9-0.6-3.1-0.8s-2.3-0.5-3.5-0.8c-1.2-0.3-2.4-0.6-3.6-1 -1.1-0.4-2.2-0.9-3.1-1.6 -0.9-0.7-1.6-1.5-2.2-2.5 -0.5-1-0.8-2.3-0.8-3.8 0-1.6 0.4-3 1.2-4.1 0.8-1.1 1.8-2 3-2.7 1.2-0.7 2.6-1.2 4.1-1.4 1.5-0.3 2.9-0.4 4.3-0.4 1.6 0 3 0.2 4.5 0.5 1.4 0.3 2.7 0.9 3.8 1.6 1.1 0.7 2.1 1.7 2.9 2.9 0.8 1.2 1.2 2.6 1.4 4.3h-6.9c-0.3-1.6-1-2.7-2.2-3.2 -1.1-0.5-2.5-0.8-3.9-0.8 -0.5 0-1 0-1.7 0.1 -0.6 0.1-1.2 0.2-1.8 0.4 -0.6 0.2-1 0.5-1.4 0.9 -0.4 0.4-0.6 0.9-0.6 1.6 0 0.8 0.3 1.5 0.8 2 0.6 0.5 1.3 0.9 2.2 1.3 0.9 0.3 1.9 0.6 3.1 0.8 1.2 0.2 2.4 0.5 3.6 0.8 1.2 0.3 2.4 0.6 3.5 1 1.2 0.4 2.2 0.9 3.1 1.6 0.9 0.7 1.6 1.5 2.2 2.5 0.6 1 0.8 2.3 0.8 3.7 0 1.8-0.4 3.3-1.2 4.5 -0.8 1.2-1.9 2.3-3.2 3 -1.3 0.8-2.7 1.3-4.3 1.7 -1.6 0.3-3.2 0.5-4.7 0.5 -1.9 0-3.7-0.2-5.3-0.6 -1.6-0.4-3-1.1-4.2-1.9 -1.2-0.9-2.1-2-2.8-3.3 -0.7-1.3-1-2.8-1.1-4.6H196.3z" class="a"/><path d="M218.1 40.5h7.3l7.9 22.5h0.1l7.6-22.5h6.9l-11.7 31.7c-0.5 1.4-1.1 2.7-1.6 3.9 -0.5 1.2-1.2 2.3-1.9 3.3 -0.8 1-1.7 1.7-2.8 2.3 -1.1 0.6-2.6 0.8-4.3 0.8 -1.6 0-3.1-0.1-4.6-0.3v-5.6c0.5 0.1 1.1 0.2 1.6 0.3 0.5 0.1 1 0.1 1.6 0.1 0.8 0 1.4-0.1 1.9-0.3 0.5-0.2 0.9-0.5 1.3-0.8 0.3-0.4 0.6-0.8 0.8-1.3 0.2-0.5 0.4-1.1 0.6-1.7l0.8-2.3L218.1 40.5z" class="a"/><path d="M274.7 70.6v-5.7h-0.1c-0.4 1-1 1.9-1.7 2.7 -0.8 0.8-1.6 1.5-2.6 2.1 -1 0.6-2 1-3.1 1.3 -1.1 0.3-2.2 0.5-3.3 0.5 -2.3 0-4.3-0.4-6-1.3 -1.7-0.8-3.1-2-4.2-3.4 -1.1-1.5-2-3.1-2.5-5.1 -0.5-1.9-0.8-3.9-0.8-6.1 0-2.1 0.3-4.2 0.8-6.1 0.5-1.9 1.4-3.6 2.5-5.1 1.1-1.5 2.5-2.6 4.2-3.5 1.7-0.9 3.7-1.3 6-1.3 1.1 0 2.2 0.1 3.3 0.4 1.1 0.3 2.1 0.7 3 1.3 0.9 0.6 1.8 1.3 2.5 2.1 0.7 0.8 1.3 1.8 1.7 2.9h0.1V29h3.7v41.5H274.7zM254.6 60.2c0.4 1.5 1 2.9 1.7 4.1 0.8 1.2 1.8 2.2 3.1 2.9 1.2 0.8 2.7 1.1 4.5 1.1 1.9 0 3.6-0.4 4.9-1.1 1.3-0.8 2.4-1.7 3.3-2.9 0.8-1.2 1.4-2.6 1.8-4.1 0.4-1.5 0.6-3.1 0.6-4.6 0-1.6-0.2-3.1-0.6-4.6 -0.4-1.5-1-2.9-1.8-4.1 -0.8-1.2-1.9-2.2-3.3-2.9 -1.3-0.8-3-1.1-4.9-1.1 -1.7 0-3.2 0.4-4.5 1.1 -1.2 0.8-2.3 1.7-3.1 2.9 -0.8 1.2-1.4 2.6-1.7 4.1 -0.4 1.5-0.6 3.1-0.6 4.6C254 57.1 254.2 58.6 254.6 60.2z" class="a"/><path d="M288.8 29V34.9h-3.7v-5.9H288.8zM288.8 40.5v30h-3.7V40.5H288.8z" class="a"/><path d="M320.5 74.1c-0.5 1.8-1.3 3.3-2.3 4.5s-2.4 2.2-4.1 2.9c-1.7 0.7-3.8 1-6.2 1 -1.5 0-3-0.2-4.4-0.5 -1.4-0.3-2.7-0.9-3.9-1.6 -1.1-0.7-2.1-1.7-2.9-2.8 -0.8-1.1-1.2-2.5-1.3-4.1h3.7c0.2 1.1 0.6 2.1 1.1 2.8 0.6 0.8 1.2 1.4 2 1.8 0.8 0.5 1.7 0.8 2.6 1 1 0.2 2 0.3 3 0.3 3.4 0 5.9-1 7.4-2.9 1.5-1.9 2.3-4.7 2.3-8.4v-4.1h-0.1c-0.9 1.9-2.1 3.4-3.8 4.5 -1.6 1.1-3.6 1.7-5.8 1.7 -2.4 0-4.5-0.4-6.2-1.2 -1.7-0.8-3.1-1.9-4.2-3.3s-1.9-3-2.4-4.9c-0.5-1.9-0.8-3.9-0.8-6 0-2.1 0.3-4 0.9-5.8 0.6-1.8 1.5-3.5 2.6-4.8 1.1-1.4 2.6-2.5 4.2-3.3 1.7-0.8 3.6-1.2 5.8-1.2 1.1 0 2.2 0.2 3.2 0.5 1 0.3 1.9 0.7 2.7 1.3 0.8 0.6 1.5 1.2 2.2 1.9 0.6 0.7 1.1 1.5 1.5 2.3h0.1v-5.2h3.7v27.6C321.2 70.3 320.9 72.3 320.5 74.1zM312 66.1c1.2-0.7 2.2-1.6 3-2.7 0.8-1.1 1.4-2.4 1.8-3.8s0.6-2.9 0.6-4.4c0-1.5-0.2-2.9-0.5-4.4 -0.3-1.5-0.9-2.8-1.7-4 -0.8-1.2-1.8-2.2-3-2.9 -1.2-0.7-2.7-1.1-4.5-1.1 -1.7 0-3.2 0.4-4.5 1.1 -1.2 0.7-2.3 1.7-3.1 2.8s-1.4 2.5-1.8 4c-0.4 1.5-0.6 3-0.6 4.6 0 1.5 0.2 3 0.6 4.4 0.4 1.4 1 2.7 1.8 3.8 0.8 1.1 1.8 2 3.1 2.7 1.2 0.7 2.7 1 4.4 1C309.5 67.1 310.8 66.8 312 66.1z" class="a"/><path d="M331.9 29V34.9h-3.7v-5.9H331.9zM331.9 40.5v30h-3.7V40.5H331.9z" class="a"/><path d="M350.9 40.5v3.1h-6.1v20.2c0 1.2 0.2 2.1 0.5 2.8 0.3 0.7 1.2 1.1 2.5 1.1 1 0 2.1-0.1 3.1-0.2v3.1c-0.5 0-1.1 0-1.6 0.1 -0.5 0-1.1 0.1-1.6 0.1 -2.4 0-4.2-0.5-5.1-1.4 -1-0.9-1.4-2.7-1.4-5.3V43.6h-5.2v-3.1h5.2v-9h3.7v9H350.9z" class="a"/><path d="M356.9 45.2c0.6-1.3 1.5-2.3 2.5-3.1 1.1-0.8 2.3-1.4 3.8-1.8 1.4-0.4 3-0.6 4.8-0.6 1.3 0 2.6 0.1 4 0.4 1.3 0.3 2.5 0.7 3.5 1.4 1 0.7 1.9 1.7 2.6 2.9 0.7 1.3 1 2.9 1 4.9v15.9c0 1.5 0.7 2.2 2.2 2.2 0.4 0 0.8-0.1 1.2-0.2v3.1c-0.4 0.1-0.8 0.1-1.1 0.2 -0.3 0-0.7 0.1-1.3 0.1 -0.9 0-1.7-0.1-2.2-0.4 -0.6-0.3-1-0.6-1.3-1.1 -0.3-0.5-0.5-1-0.6-1.7 -0.1-0.6-0.1-1.3-0.1-2.1h-0.1c-0.7 1-1.3 1.8-2 2.6 -0.7 0.8-1.4 1.4-2.3 1.9 -0.8 0.5-1.8 0.9-2.9 1.2 -1.1 0.3-2.3 0.4-3.8 0.4 -1.4 0-2.7-0.2-3.9-0.5s-2.3-0.9-3.2-1.6c-0.9-0.7-1.6-1.6-2.2-2.7 -0.5-1.1-0.8-2.4-0.8-3.9 0-2.1 0.5-3.7 1.4-4.9 0.9-1.2 2.2-2.1 3.7-2.7 1.5-0.6 3.3-1.1 5.2-1.3 1.9-0.3 3.9-0.5 5.8-0.7 0.8-0.1 1.5-0.2 2-0.3 0.6-0.1 1.1-0.3 1.5-0.6 0.4-0.3 0.7-0.7 0.9-1.2 0.2-0.5 0.3-1.2 0.3-2 0-1.2-0.2-2.3-0.6-3.1 -0.4-0.8-1-1.4-1.7-1.9 -0.7-0.5-1.6-0.8-2.5-1 -1-0.2-2-0.3-3.1-0.3 -2.3 0-4.2 0.6-5.7 1.7 -1.5 1.1-2.2 2.9-2.3 5.3H355.8C355.9 48 356.3 46.5 356.9 45.2zM375.2 54.2c-0.2 0.4-0.7 0.7-1.3 0.9 -0.7 0.2-1.2 0.3-1.7 0.4 -1.6 0.3-3.2 0.5-4.8 0.7 -1.6 0.2-3.2 0.5-4.5 1 -1.4 0.4-2.5 1-3.3 1.8 -0.9 0.8-1.3 1.9-1.3 3.4 0 0.9 0.2 1.8 0.6 2.5 0.4 0.7 0.9 1.3 1.5 1.9 0.6 0.5 1.3 0.9 2.2 1.2 0.8 0.3 1.6 0.4 2.5 0.4 1.4 0 2.7-0.2 4-0.6s2.4-1 3.3-1.9c0.9-0.8 1.7-1.8 2.3-3 0.6-1.2 0.8-2.5 0.8-4v-4.8H375.2z" class="a"/><path d="M390.1 29v41.5h-3.7V29H390.1z" class="a"/><path d="M425.4 70.6h-6.3v-4.1h-0.1c-0.9 1.7-2.2 3-3.9 3.8 -1.7 0.8-3.5 1.1-5.4 1.1 -2.4 0-4.4-0.4-6.2-1.3 -1.8-0.8-3.2-2-4.4-3.4 -1.2-1.4-2-3.1-2.6-5.1 -0.6-2-0.9-4.1-0.9-6.3 0-2.7 0.4-5.1 1.1-7 0.7-2 1.7-3.6 2.9-4.9 1.2-1.3 2.6-2.2 4.2-2.8 1.6-0.6 3.2-0.9 4.8-0.9 0.9 0 1.9 0.1 2.9 0.3 1 0.2 1.9 0.5 2.8 0.8 0.9 0.4 1.7 0.9 2.5 1.5 0.8 0.6 1.4 1.3 1.9 2.1h0.1V29h6.6V70.6zM402.3 55.8c0 1.3 0.2 2.5 0.5 3.8 0.3 1.2 0.8 2.3 1.5 3.3 0.7 1 1.5 1.7 2.6 2.3 1 0.6 2.3 0.9 3.7 0.9 1.5 0 2.7-0.3 3.8-0.9 1.1-0.6 1.9-1.4 2.6-2.4 0.7-1 1.2-2.1 1.5-3.4 0.3-1.3 0.5-2.6 0.5-3.9 0-3.3-0.7-5.9-2.2-7.8s-3.5-2.8-6.1-2.8c-1.6 0-2.9 0.3-3.9 1 -1.1 0.6-1.9 1.5-2.6 2.5 -0.7 1-1.2 2.2-1.5 3.5C402.4 53.2 402.3 54.5 402.3 55.8z" class="a"/><path d="M446.4 71.4c-2.4 0-4.5-0.4-6.4-1.2 -1.9-0.8-3.5-1.9-4.8-3.3 -1.3-1.4-2.3-3.1-3-5 -0.7-1.9-1-4.1-1-6.4 0-2.3 0.3-4.4 1-6.3 0.7-1.9 1.7-3.6 3-5 1.3-1.4 2.9-2.5 4.8-3.3 1.9-0.8 4-1.2 6.4-1.2 2.4 0 4.5 0.4 6.4 1.2 1.9 0.8 3.5 1.9 4.8 3.3 1.3 1.4 2.3 3.1 3 5 0.7 1.9 1 4.1 1 6.3 0 2.3-0.3 4.5-1 6.4 -0.7 1.9-1.7 3.6-3 5 -1.3 1.4-2.9 2.5-4.8 3.3C451 71 448.8 71.4 446.4 71.4zM446.4 66.1c1.5 0 2.8-0.3 3.8-0.9 1.1-0.6 2-1.4 2.7-2.4s1.2-2.1 1.5-3.4c0.3-1.3 0.5-2.6 0.5-3.9 0-1.3-0.2-2.6-0.5-3.8 -0.3-1.3-0.8-2.4-1.5-3.4 -0.7-1-1.6-1.8-2.7-2.4 -1.1-0.6-2.4-0.9-3.8-0.9 -1.5 0-2.8 0.3-3.8 0.9 -1.1 0.6-2 1.4-2.7 2.4 -0.7 1-1.2 2.1-1.5 3.4 -0.3 1.3-0.5 2.6-0.5 3.8 0 1.3 0.2 2.6 0.5 3.9 0.3 1.3 0.8 2.4 1.5 3.4s1.6 1.8 2.7 2.4C443.7 65.8 445 66.1 446.4 66.1z" class="a"/><path d="M464.4 40.5h7l5.9 22.5h0.1l5.6-22.5h6.7l5.4 22.5h0.1l6.1-22.5h6.7l-9.4 30.1h-6.8l-5.6-22.3h-0.1l-5.5 22.3h-7L464.4 40.5z" class="a"/><path d="M512.4 40.5h6.3v4.4l0.1 0.1c1-1.7 2.3-3 4-3.9 1.6-0.9 3.4-1.4 5.4-1.4 3.3 0 5.9 0.9 7.8 2.6 1.9 1.7 2.9 4.3 2.9 7.7v20.7h-6.6V51.7c-0.1-2.4-0.6-4.1-1.5-5.1 -0.9-1.1-2.4-1.6-4.4-1.6 -1.1 0-2.1 0.2-3 0.6s-1.6 1-2.3 1.7c-0.6 0.7-1.1 1.6-1.5 2.5 -0.3 1-0.5 2-0.5 3.1v17.7h-6.6V40.5z" class="a"/><path d="M546 29h6.6v41.5h-6.6V29z" class="a"/><path d="M573.6 71.4c-2.4 0-4.5-0.4-6.4-1.2 -1.9-0.8-3.5-1.9-4.8-3.3 -1.3-1.4-2.3-3.1-3-5 -0.7-1.9-1-4.1-1-6.4 0-2.3 0.3-4.4 1-6.3 0.7-1.9 1.7-3.6 3-5 1.3-1.4 2.9-2.5 4.8-3.3 1.9-0.8 4-1.2 6.4-1.2 2.4 0 4.5 0.4 6.4 1.2 1.9 0.8 3.5 1.9 4.8 3.3 1.3 1.4 2.3 3.1 3 5 0.7 1.9 1 4.1 1 6.3 0 2.3-0.3 4.5-1 6.4 -0.7 1.9-1.7 3.6-3 5 -1.3 1.4-2.9 2.5-4.8 3.3C578.2 71 576 71.4 573.6 71.4zM573.6 66.1c1.5 0 2.8-0.3 3.8-0.9 1.1-0.6 2-1.4 2.7-2.4s1.2-2.1 1.5-3.4c0.3-1.3 0.5-2.6 0.5-3.9 0-1.3-0.2-2.6-0.5-3.8 -0.3-1.3-0.8-2.4-1.5-3.4 -0.7-1-1.6-1.8-2.7-2.4 -1.1-0.6-2.4-0.9-3.8-0.9 -1.5 0-2.8 0.3-3.8 0.9 -1.1 0.6-2 1.4-2.7 2.4 -0.7 1-1.2 2.1-1.5 3.4 -0.3 1.3-0.5 2.6-0.5 3.8 0 1.3 0.2 2.6 0.5 3.9 0.3 1.3 0.8 2.4 1.5 3.4s1.6 1.8 2.7 2.4C570.9 65.8 572.1 66.1 573.6 66.1z" class="a"/><path d="M619.5 63.9c0 0.8 0.1 1.4 0.3 1.7 0.2 0.3 0.6 0.5 1.3 0.5 0.2 0 0.4 0 0.7 0 0.3 0 0.6 0 0.9-0.1v4.6c-0.2 0.1-0.5 0.2-0.9 0.3 -0.4 0.1-0.7 0.2-1.1 0.3 -0.4 0.1-0.8 0.1-1.2 0.2s-0.7 0.1-1 0.1c-1.4 0-2.5-0.3-3.4-0.8 -0.9-0.5-1.5-1.5-1.7-2.9 -1.3 1.3-2.9 2.2-4.9 2.8 -1.9 0.6-3.8 0.9-5.6 0.9 -1.4 0-2.7-0.2-3.9-0.6 -1.2-0.4-2.3-0.9-3.3-1.6 -1-0.7-1.7-1.6-2.3-2.7s-0.8-2.4-0.8-3.9c0-1.9 0.3-3.4 1-4.5 0.7-1.2 1.6-2.1 2.7-2.7 1.1-0.7 2.3-1.1 3.7-1.4 1.4-0.3 2.8-0.5 4.2-0.7 1.2-0.2 2.3-0.4 3.4-0.5 1.1-0.1 2-0.3 2.9-0.5 0.8-0.2 1.5-0.6 2-1.1 0.5-0.5 0.7-1.2 0.7-2.2 0-0.9-0.2-1.6-0.6-2.1 -0.4-0.5-0.9-1-1.5-1.3 -0.6-0.3-1.3-0.5-2-0.6 -0.7-0.1-1.4-0.1-2.1-0.1 -1.9 0-3.4 0.4-4.6 1.2s-1.9 2-2 3.6h-6.6c0.1-1.9 0.6-3.5 1.4-4.8 0.8-1.3 1.9-2.3 3.1-3.1 1.3-0.8 2.7-1.3 4.3-1.6 1.6-0.3 3.2-0.5 4.9-0.5 1.5 0 2.9 0.2 4.4 0.5 1.4 0.3 2.7 0.8 3.9 1.5 1.1 0.7 2.1 1.6 2.8 2.7 0.7 1.1 1 2.5 1 4V63.9zM612.9 55.5c-1 0.7-2.2 1.1-3.7 1.2 -1.5 0.1-2.9 0.3-4.4 0.6 -0.7 0.1-1.4 0.3-2 0.5 -0.7 0.2-1.2 0.5-1.7 0.9 -0.5 0.4-0.9 0.9-1.2 1.5 -0.3 0.6-0.4 1.3-0.4 2.2 0 0.7 0.2 1.4 0.6 1.9 0.4 0.5 0.9 0.9 1.5 1.2s1.3 0.5 2 0.6c0.7 0.1 1.4 0.2 1.9 0.2 0.7 0 1.5-0.1 2.4-0.3 0.9-0.2 1.7-0.5 2.4-1 0.8-0.5 1.4-1.1 1.9-1.8 0.5-0.7 0.8-1.6 0.8-2.6V55.5z" class="a"/><path d="M655 70.6h-6.3v-4.1h-0.1c-0.9 1.7-2.2 3-3.9 3.8 -1.7 0.8-3.5 1.1-5.4 1.1 -2.4 0-4.4-0.4-6.2-1.3 -1.8-0.8-3.2-2-4.4-3.4 -1.2-1.4-2-3.1-2.6-5.1 -0.6-2-0.9-4.1-0.9-6.3 0-2.7 0.4-5.1 1.1-7 0.7-2 1.7-3.6 2.9-4.9 1.2-1.3 2.6-2.2 4.2-2.8 1.6-0.6 3.2-0.9 4.8-0.9 0.9 0 1.9 0.1 2.9 0.3 1 0.2 1.9 0.5 2.8 0.8 0.9 0.4 1.7 0.9 2.5 1.5 0.8 0.6 1.4 1.3 1.9 2.1h0.1V29h6.6V70.6zM631.9 55.8c0 1.3 0.2 2.5 0.5 3.8 0.3 1.2 0.8 2.3 1.5 3.3 0.7 1 1.5 1.7 2.6 2.3 1 0.6 2.3 0.9 3.7 0.9 1.5 0 2.7-0.3 3.8-0.9 1.1-0.6 1.9-1.4 2.6-2.4 0.7-1 1.2-2.1 1.5-3.4 0.3-1.3 0.5-2.6 0.5-3.9 0-3.3-0.7-5.9-2.2-7.8s-3.5-2.8-6.1-2.8c-1.6 0-2.9 0.3-3.9 1 -1.1 0.6-1.9 1.5-2.6 2.5 -0.7 1-1.2 2.2-1.5 3.5C632 53.2 631.9 54.5 631.9 55.8z" class="a"/><path d="M667.2 60.9c0.2 1.9 0.9 3.3 2.2 4.1 1.3 0.8 2.8 1.2 4.6 1.2 0.6 0 1.3 0 2.1-0.1 0.8-0.1 1.5-0.3 2.2-0.6 0.7-0.3 1.3-0.7 1.7-1.2 0.4-0.5 0.6-1.2 0.6-2.1 0-0.9-0.3-1.6-0.9-2.1 -0.6-0.5-1.3-1-2.2-1.3 -0.9-0.3-1.9-0.6-3.1-0.8 -1.2-0.2-2.3-0.5-3.5-0.8 -1.2-0.3-2.4-0.6-3.6-1 -1.1-0.4-2.2-0.9-3.1-1.6 -0.9-0.7-1.6-1.5-2.2-2.5 -0.5-1-0.8-2.3-0.8-3.8 0-1.6 0.4-3 1.2-4.1s1.8-2 3-2.7c1.2-0.7 2.6-1.2 4.1-1.4 1.5-0.3 2.9-0.4 4.3-0.4 1.6 0 3 0.2 4.5 0.5 1.4 0.3 2.7 0.9 3.8 1.6 1.1 0.7 2.1 1.7 2.9 2.9 0.8 1.2 1.2 2.6 1.4 4.3h-6.9c-0.3-1.6-1-2.7-2.2-3.2 -1.1-0.5-2.5-0.8-3.9-0.8 -0.5 0-1 0-1.7 0.1 -0.6 0.1-1.2 0.2-1.8 0.4 -0.6 0.2-1 0.5-1.4 0.9s-0.6 0.9-0.6 1.6c0 0.8 0.3 1.5 0.8 2 0.6 0.5 1.3 0.9 2.2 1.3 0.9 0.3 1.9 0.6 3.1 0.8 1.2 0.2 2.4 0.5 3.6 0.8 1.2 0.3 2.4 0.6 3.6 1 1.2 0.4 2.2 0.9 3.1 1.6 0.9 0.7 1.6 1.5 2.2 2.5 0.6 1 0.8 2.3 0.8 3.7 0 1.8-0.4 3.3-1.2 4.5 -0.8 1.2-1.9 2.3-3.2 3 -1.3 0.8-2.7 1.3-4.3 1.7 -1.6 0.3-3.2 0.5-4.7 0.5 -1.9 0-3.7-0.2-5.3-0.6 -1.6-0.4-3-1.1-4.2-1.9 -1.2-0.9-2.1-2-2.8-3.3 -0.7-1.3-1-2.8-1.1-4.6H667.2z" class="a"/></svg>