<svg xmlns:sketch="http://www.bohemiancoding.com/sketch/ns" xmlns:dc="http://purl.org/dc/elements/1.1/" xmlns:cc="http://creativecommons.org/ns#" xmlns:rdf="http://www.w3.org/1999/02/22-rdf-syntax-ns#" xmlns:svg="http://www.w3.org/2000/svg" xmlns="http://www.w3.org/2000/svg" xmlns:sodipodi="http://sodipodi.sourceforge.net/DTD/sodipodi-0.dtd" xmlns:inkscape="http://www.inkscape.org/namespaces/inkscape"><defs><linearGradient id="loading-linear-gradient"><stop offset="0%" stop-color="#ffffff"/><stop offset="100%" stop-color="#2794da"/></linearGradient></defs><symbol viewBox="0 0 32 32" id="icon-announcement"><title>announcement</title> <path fill="#FFFFFF" d="M31.059,2.619c-0.52,0-0.941,0.421-0.941,0.941v0.612L1.882,12.766v-0.039c0-0.52-0.421-0.941-0.941-0.941
	S0,12.207,0,12.727v1.309v3.928v1.31c0,0.52,0.421,0.941,0.941,0.941s0.941-0.421,0.941-0.941v-0.039l4.665,1.42v2.693
	c0,3.046,2.478,5.525,5.524,5.525c2.823,0,5.156-2.131,5.482-4.868l12.564,3.824v0.612c0,0.52,0.421,0.941,0.941,0.941
	c0.52,0,0.941-0.421,0.941-0.941v-1.31V4.869V3.56C32,3.04,31.579,2.619,31.059,2.619z M12.072,26.99
	c-2.008,0-3.642-1.634-3.642-3.642v-2.12l7.275,2.214C15.653,25.405,14.048,26.99,12.072,26.99z M1.882,17.267v-2.534L30.118,6.14
	V25.86L1.882,17.267z"/> </symbol><symbol viewBox="0 0 128 128" id="icon-loading"><title>loading</title><g><path d="M63.85 0A63.85 63.85 0 1 1 0 63.85 63.85 63.85 0 0 1 63.85 0zm.65 19.5a44 44 0 1 1-44 44 44 44 0 0 1 44-44z" fill="url(#loading-linear-gradient)" fill-rule="evenodd"/><animateTransform attributeName="transform" type="rotate" from="0 64 64" to="360 64 64" dur="1080ms" repeatCount="indefinite"/></g></symbol><symbol viewBox="0 0 32 32" id="icon-remove"><title>remove</title> <g> <path fill="#ffffff" d="M17.86,15.999l4.114-4.114c0.568-0.568,0.568-1.489,0.001-2.057c-0.568-0.568-1.491-0.568-2.057,0
		l-4.115,4.114L11.689,9.83c-0.568-0.568-1.489-0.568-2.057,0s-0.568,1.489,0,2.057L13.745,16l-4.114,4.114
		c-0.568,0.568-0.568,1.49,0,2.057c0.284,0.284,0.656,0.426,1.029,0.426s0.744-0.142,1.029-0.425l4.114-4.114l4.114,4.114
		c0.284,0.283,0.657,0.425,1.029,0.425s0.745-0.142,1.029-0.425c0.567-0.568,0.567-1.49,0-2.058L17.86,15.999z"/> <path fill="#ffffff" d="M16,0C7.178,0,0,7.178,0,16c0,8.823,7.178,16,16,16c8.823,0,16-7.177,16-16C32,7.178,24.823,0,16,0z
		 M16,29.092C8.782,29.092,2.909,23.219,2.909,16S8.782,2.909,16,2.909S29.092,8.782,29.092,16S23.219,29.092,16,29.092z"/> </g> </symbol></svg>